<svg xmlns="http://www.w3.org/2000/svg" height="40" viewBox="0 -960 960 960" width="40"><path d="m435.282-361.59 155.564-99.974q10.205-6.491 10.205-18.361 0-11.87-10.205-18.511L435.282-598.41q-11.308-7.641-22.808-1.2t-11.5 19.635v199.95q0 13.194 11.5 19.635 11.5 6.441 22.808-1.2ZM480.134-120q-74.519 0-139.999-28.339-65.481-28.34-114.442-77.255-48.961-48.915-77.327-114.335Q120-405.348 120-479.866q0-74.673 28.339-140.41 28.34-65.737 77.255-114.365 48.915-48.627 114.335-76.993Q405.348-840 479.866-840q74.673 0 140.41 28.339 65.737 28.34 114.365 76.922 48.627 48.582 76.993 114.257Q840-554.806 840-480.134q0 74.519-28.339 139.999-28.34 65.481-76.922 114.442-48.582 48.961-114.257 77.327Q554.806-120 480.134-120Z"/></svg>